<svg xmlns="http://www.w3.org/2000/svg" xmlns:xlink="http://www.w3.org/1999/xlink" width="500" zoomAndPan="magnify" viewBox="0 0 375 374.999991" height="500" preserveAspectRatio="xMidYMid meet" version="1.0"><defs><g/><clipPath id="df7277b0e2"><path d="M 131.085938 138 L 145 138 L 145 267.636719 L 131.085938 267.636719 Z M 131.085938 138 " clip-rule="nonzero"/></clipPath><clipPath id="3f5c8f1fe1"><path d="M 131.085938 150 L 141 150 L 141 267 L 131.085938 267 Z M 131.085938 150 " clip-rule="nonzero"/></clipPath><clipPath id="15b2945223"><path d="M 131.085938 138 L 145 138 L 145 267.636719 L 131.085938 267.636719 Z M 131.085938 138 " clip-rule="nonzero"/></clipPath><clipPath id="3cee6b6d13"><path d="M 145.011719 252 L 250.011719 252 L 250.011719 268 L 145.011719 268 Z M 145.011719 252 " clip-rule="nonzero"/></clipPath></defs><g fill="#000000" fill-opacity="1"><g transform="translate(87.510047, 197.460522)"><g><path d="M 13.40625 -17.890625 L 13.40625 0 L 3.25 0 L 3.25 -44.59375 L 13.40625 -44.59375 L 13.40625 -26.8125 L 27.78125 -26.8125 L 27.78125 -44.59375 L 37.9375 -44.59375 L 37.9375 0 L 27.78125 0 L 27.78125 -17.890625 Z M 13.40625 -17.890625 "/></g></g></g><g fill="#000000" fill-opacity="1"><g transform="translate(128.690239, 197.460522)"><g><path d="M 13.40625 -44.59375 L 13.40625 0 L 3.25 0 L 3.25 -44.59375 Z M 13.40625 -44.59375 "/></g></g></g><g fill="#000000" fill-opacity="1"><g transform="translate(145.335258, 197.460522)"><g><path d="M 3.25 -44.59375 L 19.1875 -44.59375 C 23.476562 -44.59375 26.972656 -43.445312 29.671875 -41.15625 C 32.367188 -38.863281 33.71875 -35.59375 33.71875 -31.34375 C 33.71875 -28.0625 32.898438 -25.3125 31.265625 -23.09375 C 29.628906 -20.882812 27.40625 -19.332031 24.59375 -18.4375 L 39.9375 0 L 27.015625 0 L 13.40625 -17.625 L 13.40625 0 L 3.25 0 Z M 13.40625 -24.8125 L 14.59375 -24.8125 C 15.53125 -24.8125 16.320312 -24.828125 16.96875 -24.859375 C 17.613281 -24.898438 18.351562 -25.023438 19.1875 -25.234375 C 20.019531 -25.453125 20.6875 -25.757812 21.1875 -26.15625 C 21.6875 -26.550781 22.117188 -27.125 22.484375 -27.875 C 22.847656 -28.632812 23.03125 -29.554688 23.03125 -30.640625 C 23.03125 -31.722656 22.847656 -32.640625 22.484375 -33.390625 C 22.117188 -34.148438 21.6875 -34.726562 21.1875 -35.125 C 20.6875 -35.519531 20.019531 -35.828125 19.1875 -36.046875 C 18.351562 -36.265625 17.613281 -36.390625 16.96875 -36.421875 C 16.320312 -36.460938 15.53125 -36.484375 14.59375 -36.484375 L 13.40625 -36.484375 Z M 13.40625 -24.8125 "/></g></g></g><g fill="#000000" fill-opacity="1"><g transform="translate(184.029515, 197.460522)"><g><path d="M 28.75 -44.59375 L 28.75 -35.671875 L 13.40625 -35.671875 L 13.40625 -26.8125 L 28.109375 -26.8125 L 28.109375 -17.890625 L 13.40625 -17.890625 L 13.40625 -8.921875 L 28.75 -8.921875 L 28.75 0 L 3.25 0 L 3.25 -44.59375 Z M 28.75 -44.59375 "/></g></g></g><g fill="#000000" fill-opacity="1"><g transform="translate(215.374027, 197.460522)"><g><path d="M 1.25 -22.328125 C 1.25 -28.773438 3.445312 -34.234375 7.84375 -38.703125 C 12.238281 -43.171875 17.535156 -45.40625 23.734375 -45.40625 C 29.960938 -45.40625 35.253906 -43.175781 39.609375 -38.71875 C 43.972656 -34.269531 46.15625 -28.804688 46.15625 -22.328125 C 46.15625 -15.796875 44.007812 -10.304688 39.71875 -5.859375 C 35.4375 -1.410156 30.109375 0.8125 23.734375 0.8125 C 17.203125 0.8125 11.820312 -1.394531 7.59375 -5.8125 C 3.363281 -10.226562 1.25 -15.734375 1.25 -22.328125 Z M 12.21875 -22.328125 C 12.21875 -19.984375 12.578125 -17.847656 13.296875 -15.921875 C 14.015625 -13.992188 15.273438 -12.363281 17.078125 -11.03125 C 18.878906 -9.695312 21.097656 -9.03125 23.734375 -9.03125 C 27.515625 -9.03125 30.367188 -10.328125 32.296875 -12.921875 C 34.222656 -15.515625 35.1875 -18.648438 35.1875 -22.328125 C 35.1875 -25.960938 34.203125 -29.082031 32.234375 -31.6875 C 30.273438 -34.300781 27.441406 -35.609375 23.734375 -35.609375 C 20.054688 -35.609375 17.21875 -34.300781 15.21875 -31.6875 C 13.21875 -29.082031 12.21875 -25.960938 12.21875 -22.328125 Z M 12.21875 -22.328125 "/></g></g></g><g fill="#000000" fill-opacity="1"><g transform="translate(262.769085, 197.460522)"><g><path d="M 13.40625 -27.671875 L 13.40625 0 L 3.25 0 L 3.25 -44.59375 L 13.40625 -44.59375 L 31.125 -16.921875 L 31.234375 -16.921875 L 31.234375 -44.59375 L 41.40625 -44.59375 L 41.40625 0 L 31.234375 0 L 13.515625 -27.671875 Z M 13.40625 -27.671875 "/></g></g></g><g clip-path="url(#df7277b0e2)"><path fill="#000000" d="M 144.992188 147.511719 C 144.992188 147.277344 144.800781 147.085938 144.570312 147.085938 L 143.765625 147.085938 L 143.765625 138.476562 C 143.765625 138.242188 143.574219 138.050781 143.34375 138.050781 L 136.257812 138.050781 C 136.023438 138.050781 135.835938 138.242188 135.835938 138.476562 L 135.835938 147.085938 L 135.03125 147.085938 C 134.796875 147.085938 134.609375 147.277344 134.609375 147.511719 L 134.609375 149.777344 C 132.628906 149.988281 131.085938 151.667969 131.085938 153.699219 L 131.085938 194.929688 C 131.085938 196.960938 132.628906 198.640625 134.609375 198.851562 L 134.609375 249.394531 C 134.609375 249.414062 134.617188 249.429688 134.621094 249.449219 C 134.621094 249.460938 134.617188 249.476562 134.621094 249.488281 L 137.929688 264.09375 L 138.476562 266.488281 C 138.617188 267.121094 139.152344 267.546875 139.800781 267.546875 C 140.449219 267.546875 140.980469 267.121094 141.125 266.488281 L 141.667969 264.09375 L 144.980469 249.488281 C 144.984375 249.476562 144.980469 249.460938 144.980469 249.449219 C 144.984375 249.429688 144.992188 249.414062 144.992188 249.394531 Z M 144.992188 147.511719 " fill-opacity="1" fill-rule="nonzero"/></g><path fill="#000000" d="M 138.980469 153.699219 L 138.980469 194.929688 C 138.980469 196.960938 137.433594 198.640625 135.457031 198.851562 L 135.457031 248.972656 L 144.144531 248.972656 L 144.144531 147.933594 L 135.457031 147.933594 L 135.457031 149.777344 C 137.433594 149.988281 138.980469 151.664062 138.980469 153.699219 Z M 138.980469 153.699219 " fill-opacity="1" fill-rule="nonzero"/><path fill="#d5a51e" d="M 144.039062 249.820312 L 140.917969 263.574219 L 138.683594 263.574219 L 135.5625 249.820312 Z M 142.917969 138.898438 L 136.679688 138.898438 L 136.679688 147.015625 L 142.917969 147.015625 Z M 142.917969 138.898438 " fill-opacity="1" fill-rule="nonzero"/><g clip-path="url(#3f5c8f1fe1)"><path fill="#FFB703" d="M 139.300781 266.300781 L 138.875 264.421875 L 140.726562 264.421875 L 140.300781 266.300781 C 140.234375 266.597656 140 266.699219 139.800781 266.699219 C 139.601562 266.699219 139.367188 266.597656 139.300781 266.300781 Z M 135.03125 198.03125 C 136.742188 198.03125 138.132812 196.640625 138.132812 194.929688 L 138.132812 153.699219 C 138.132812 151.988281 136.742188 150.597656 135.03125 150.597656 C 133.324219 150.597656 131.929688 151.988281 131.929688 153.699219 L 131.929688 194.929688 C 131.929688 196.640625 133.320312 198.03125 135.03125 198.03125 Z M 135.03125 198.03125 " fill-opacity="1" fill-rule="nonzero"/></g><g clip-path="url(#15b2945223)"><path fill="#000000" d="M 144.992188 147.511719 C 144.992188 147.277344 144.800781 147.085938 144.570312 147.085938 L 143.765625 147.085938 L 143.765625 138.476562 C 143.765625 138.242188 143.574219 138.050781 143.34375 138.050781 L 136.257812 138.050781 C 136.023438 138.050781 135.835938 138.242188 135.835938 138.476562 L 135.835938 147.085938 L 135.03125 147.085938 C 134.796875 147.085938 134.609375 147.277344 134.609375 147.511719 L 134.609375 149.777344 C 132.628906 149.988281 131.085938 151.667969 131.085938 153.699219 L 131.085938 194.929688 C 131.085938 196.960938 132.628906 198.640625 134.609375 198.851562 L 134.609375 249.394531 C 134.609375 249.414062 134.617188 249.429688 134.621094 249.449219 C 134.621094 249.460938 134.617188 249.476562 134.621094 249.488281 L 137.929688 264.09375 L 138.476562 266.488281 C 138.617188 267.121094 139.152344 267.546875 139.800781 267.546875 C 140.449219 267.546875 140.980469 267.121094 141.125 266.488281 L 141.667969 264.09375 L 144.980469 249.488281 C 144.984375 249.476562 144.980469 249.460938 144.980469 249.449219 C 144.984375 249.429688 144.992188 249.414062 144.992188 249.394531 Z M 136.679688 138.898438 L 142.917969 138.898438 L 142.917969 147.015625 L 136.679688 147.015625 Z M 131.929688 194.929688 L 131.929688 153.699219 C 131.929688 151.988281 133.320312 150.597656 135.03125 150.597656 C 136.742188 150.597656 138.132812 151.988281 138.132812 153.699219 L 138.132812 194.929688 C 138.132812 196.640625 136.742188 198.03125 135.03125 198.03125 C 133.320312 198.03125 131.929688 196.640625 131.929688 194.929688 Z M 140.300781 266.300781 C 140.234375 266.597656 140 266.699219 139.800781 266.699219 C 139.601562 266.699219 139.367188 266.597656 139.300781 266.300781 L 138.875 264.421875 L 140.726562 264.421875 Z M 140.917969 263.574219 L 138.683594 263.574219 L 135.5625 249.820312 L 144.039062 249.820312 Z M 135.457031 248.972656 L 135.457031 198.851562 C 137.433594 198.640625 138.980469 196.960938 138.980469 194.929688 L 138.980469 153.699219 C 138.980469 151.664062 137.433594 149.988281 135.457031 149.777344 L 135.457031 147.933594 L 144.144531 147.933594 L 144.144531 248.972656 Z M 135.457031 248.972656 " fill-opacity="1" fill-rule="nonzero"/></g><g fill="#000000" fill-opacity="1"><g transform="translate(149.597529, 221.543642)"><g><path d="M 8.046875 -16.359375 L 11.421875 -16.359375 L 11.421875 -5.03125 C 11.421875 -3.988281 11.191406 -3.066406 10.734375 -2.265625 C 10.273438 -1.472656 9.625 -0.859375 8.78125 -0.421875 C 7.945312 0.00390625 7 0.21875 5.9375 0.21875 C 4.207031 0.21875 2.859375 -0.21875 1.890625 -1.09375 C 0.929688 -1.976562 0.453125 -3.222656 0.453125 -4.828125 L 3.84375 -4.828125 C 3.84375 -4.023438 4.007812 -3.429688 4.34375 -3.046875 C 4.6875 -2.671875 5.21875 -2.484375 5.9375 -2.484375 C 6.582031 -2.484375 7.09375 -2.703125 7.46875 -3.140625 C 7.851562 -3.585938 8.046875 -4.21875 8.046875 -5.03125 Z M 8.046875 -16.359375 "/></g></g></g><g fill="#000000" fill-opacity="1"><g transform="translate(162.440821, 221.543642)"><g><path d="M 0.734375 -6.1875 C 0.734375 -7.394531 0.96875 -8.46875 1.4375 -9.40625 C 1.90625 -10.351562 2.570312 -11.082031 3.4375 -11.59375 C 4.3125 -12.113281 5.328125 -12.375 6.484375 -12.375 C 8.117188 -12.375 9.453125 -11.867188 10.484375 -10.859375 C 11.523438 -9.859375 12.109375 -8.5 12.234375 -6.78125 L 12.25 -5.953125 C 12.25 -4.085938 11.726562 -2.59375 10.6875 -1.46875 C 9.644531 -0.34375 8.25 0.21875 6.5 0.21875 C 4.75 0.21875 3.347656 -0.335938 2.296875 -1.453125 C 1.253906 -2.578125 0.734375 -4.109375 0.734375 -6.046875 Z M 3.984375 -5.953125 C 3.984375 -4.796875 4.203125 -3.910156 4.640625 -3.296875 C 5.078125 -2.691406 5.695312 -2.390625 6.5 -2.390625 C 7.289062 -2.390625 7.90625 -2.691406 8.34375 -3.296875 C 8.78125 -3.898438 9 -4.863281 9 -6.1875 C 9 -7.320312 8.78125 -8.195312 8.34375 -8.8125 C 7.90625 -9.4375 7.285156 -9.75 6.484375 -9.75 C 5.691406 -9.75 5.078125 -9.4375 4.640625 -8.8125 C 4.203125 -8.195312 3.984375 -7.242188 3.984375 -5.953125 Z M 3.984375 -5.953125 "/></g></g></g><g fill="#000000" fill-opacity="1"><g transform="translate(175.441285, 221.543642)"><g><path d="M 12.203125 -5.96875 C 12.203125 -4.019531 11.785156 -2.5 10.953125 -1.40625 C 10.117188 -0.320312 8.957031 0.21875 7.46875 0.21875 C 6.144531 0.21875 5.09375 -0.285156 4.3125 -1.296875 L 4.171875 0 L 1.25 0 L 1.25 -17.25 L 4.5 -17.25 L 4.5 -11.0625 C 5.238281 -11.9375 6.222656 -12.375 7.453125 -12.375 C 8.929688 -12.375 10.09375 -11.828125 10.9375 -10.734375 C 11.78125 -9.648438 12.203125 -8.117188 12.203125 -6.140625 Z M 8.953125 -6.203125 C 8.953125 -7.429688 8.753906 -8.328125 8.359375 -8.890625 C 7.972656 -9.453125 7.394531 -9.734375 6.625 -9.734375 C 5.59375 -9.734375 4.882812 -9.3125 4.5 -8.46875 L 4.5 -3.671875 C 4.894531 -2.816406 5.613281 -2.390625 6.65625 -2.390625 C 7.695312 -2.390625 8.382812 -2.90625 8.71875 -3.9375 C 8.875 -4.4375 8.953125 -5.191406 8.953125 -6.203125 Z M 8.953125 -6.203125 "/></g></g></g><g fill="#000000" fill-opacity="1"><g transform="translate(149.597529, 241.793641)"><g><path d="M 9.9375 -4.296875 C 9.9375 -4.929688 9.710938 -5.414062 9.265625 -5.75 C 8.816406 -6.09375 8.007812 -6.453125 6.84375 -6.828125 C 5.675781 -7.210938 4.75 -7.585938 4.0625 -7.953125 C 2.207031 -8.953125 1.28125 -10.300781 1.28125 -12 C 1.28125 -12.882812 1.53125 -13.671875 2.03125 -14.359375 C 2.53125 -15.054688 3.242188 -15.597656 4.171875 -15.984375 C 5.109375 -16.378906 6.15625 -16.578125 7.3125 -16.578125 C 8.476562 -16.578125 9.515625 -16.363281 10.421875 -15.9375 C 11.335938 -15.519531 12.046875 -14.925781 12.546875 -14.15625 C 13.054688 -13.382812 13.3125 -12.503906 13.3125 -11.515625 L 9.953125 -11.515625 C 9.953125 -12.265625 9.710938 -12.847656 9.234375 -13.265625 C 8.765625 -13.679688 8.101562 -13.890625 7.25 -13.890625 C 6.425781 -13.890625 5.785156 -13.710938 5.328125 -13.359375 C 4.878906 -13.015625 4.65625 -12.5625 4.65625 -12 C 4.65625 -11.46875 4.921875 -11.019531 5.453125 -10.65625 C 5.984375 -10.300781 6.769531 -9.960938 7.8125 -9.640625 C 9.726562 -9.066406 11.125 -8.351562 12 -7.5 C 12.875 -6.644531 13.3125 -5.582031 13.3125 -4.3125 C 13.3125 -2.894531 12.773438 -1.785156 11.703125 -0.984375 C 10.640625 -0.179688 9.203125 0.21875 7.390625 0.21875 C 6.128906 0.21875 4.984375 -0.0078125 3.953125 -0.46875 C 2.921875 -0.925781 2.132812 -1.554688 1.59375 -2.359375 C 1.050781 -3.160156 0.78125 -4.085938 0.78125 -5.140625 L 4.15625 -5.140625 C 4.15625 -3.335938 5.234375 -2.4375 7.390625 -2.4375 C 8.191406 -2.4375 8.816406 -2.597656 9.265625 -2.921875 C 9.710938 -3.253906 9.9375 -3.710938 9.9375 -4.296875 Z M 9.9375 -4.296875 "/></g></g></g><g fill="#000000" fill-opacity="1"><g transform="translate(163.731886, 241.793641)"><g><path d="M 6.84375 0.21875 C 5.0625 0.21875 3.609375 -0.328125 2.484375 -1.421875 C 1.367188 -2.515625 0.8125 -3.96875 0.8125 -5.78125 L 0.8125 -6.09375 C 0.8125 -7.3125 1.046875 -8.398438 1.515625 -9.359375 C 1.984375 -10.328125 2.648438 -11.070312 3.515625 -11.59375 C 4.378906 -12.113281 5.367188 -12.375 6.484375 -12.375 C 8.140625 -12.375 9.445312 -11.847656 10.40625 -10.796875 C 11.363281 -9.753906 11.84375 -8.269531 11.84375 -6.34375 L 11.84375 -5.015625 L 4.09375 -5.015625 C 4.195312 -4.222656 4.515625 -3.585938 5.046875 -3.109375 C 5.578125 -2.628906 6.242188 -2.390625 7.046875 -2.390625 C 8.296875 -2.390625 9.273438 -2.84375 9.984375 -3.75 L 11.578125 -1.96875 C 11.085938 -1.28125 10.425781 -0.742188 9.59375 -0.359375 C 8.769531 0.0234375 7.851562 0.21875 6.84375 0.21875 Z M 6.46875 -9.75 C 5.820312 -9.75 5.296875 -9.53125 4.890625 -9.09375 C 4.492188 -8.664062 4.242188 -8.046875 4.140625 -7.234375 L 8.640625 -7.234375 L 8.640625 -7.484375 C 8.628906 -8.203125 8.4375 -8.757812 8.0625 -9.15625 C 7.6875 -9.550781 7.15625 -9.75 6.46875 -9.75 Z M 6.46875 -9.75 "/></g></g></g><g fill="#000000" fill-opacity="1"><g transform="translate(176.159791, 241.793641)"><g><path d="M 8.28125 0 C 8.132812 -0.289062 8.03125 -0.65625 7.96875 -1.09375 C 7.175781 -0.21875 6.148438 0.21875 4.890625 0.21875 C 3.703125 0.21875 2.71875 -0.125 1.9375 -0.8125 C 1.15625 -1.5 0.765625 -2.367188 0.765625 -3.421875 C 0.765625 -4.703125 1.238281 -5.6875 2.1875 -6.375 C 3.144531 -7.0625 4.523438 -7.410156 6.328125 -7.421875 L 7.828125 -7.421875 L 7.828125 -8.125 C 7.828125 -8.6875 7.679688 -9.132812 7.390625 -9.46875 C 7.109375 -9.800781 6.65625 -9.96875 6.03125 -9.96875 C 5.488281 -9.96875 5.0625 -9.835938 4.75 -9.578125 C 4.4375 -9.316406 4.28125 -8.957031 4.28125 -8.5 L 1.03125 -8.5 C 1.03125 -9.207031 1.25 -9.859375 1.6875 -10.453125 C 2.125 -11.054688 2.738281 -11.523438 3.53125 -11.859375 C 4.320312 -12.203125 5.210938 -12.375 6.203125 -12.375 C 7.703125 -12.375 8.890625 -12 9.765625 -11.25 C 10.640625 -10.5 11.078125 -9.441406 11.078125 -8.078125 L 11.078125 -2.8125 C 11.085938 -1.65625 11.25 -0.78125 11.5625 -0.1875 L 11.5625 0 Z M 5.609375 -2.25 C 6.085938 -2.25 6.523438 -2.351562 6.921875 -2.5625 C 7.328125 -2.78125 7.628906 -3.070312 7.828125 -3.4375 L 7.828125 -5.53125 L 6.609375 -5.53125 C 4.984375 -5.53125 4.117188 -4.96875 4.015625 -3.84375 L 4.015625 -3.65625 C 4.015625 -3.25 4.15625 -2.910156 4.4375 -2.640625 C 4.71875 -2.378906 5.109375 -2.25 5.609375 -2.25 Z M 5.609375 -2.25 "/></g></g></g><g fill="#000000" fill-opacity="1"><g transform="translate(188.486656, 241.793641)"><g><path d="M 8.078125 -9.109375 C 7.628906 -9.171875 7.238281 -9.203125 6.90625 -9.203125 C 5.675781 -9.203125 4.875 -8.785156 4.5 -7.953125 L 4.5 0 L 1.25 0 L 1.25 -12.15625 L 4.3125 -12.15625 L 4.40625 -10.703125 C 5.050781 -11.816406 5.953125 -12.375 7.109375 -12.375 C 7.460938 -12.375 7.800781 -12.328125 8.125 -12.234375 Z M 8.078125 -9.109375 "/></g></g></g><g fill="#000000" fill-opacity="1"><g transform="translate(196.872966, 241.793641)"><g><path d="M 6.296875 -2.390625 C 6.898438 -2.390625 7.390625 -2.550781 7.765625 -2.875 C 8.140625 -3.207031 8.332031 -3.648438 8.34375 -4.203125 L 11.390625 -4.203125 C 11.378906 -3.378906 11.148438 -2.625 10.703125 -1.9375 C 10.265625 -1.25 9.660156 -0.71875 8.890625 -0.34375 C 8.128906 0.03125 7.285156 0.21875 6.359375 0.21875 C 4.617188 0.21875 3.242188 -0.332031 2.234375 -1.4375 C 1.234375 -2.539062 0.734375 -4.066406 0.734375 -6.015625 L 0.734375 -6.21875 C 0.734375 -8.09375 1.234375 -9.585938 2.234375 -10.703125 C 3.234375 -11.816406 4.597656 -12.375 6.328125 -12.375 C 7.847656 -12.375 9.066406 -11.941406 9.984375 -11.078125 C 10.898438 -10.210938 11.367188 -9.0625 11.390625 -7.625 L 8.34375 -7.625 C 8.332031 -8.25 8.140625 -8.757812 7.765625 -9.15625 C 7.390625 -9.550781 6.894531 -9.75 6.28125 -9.75 C 5.519531 -9.75 4.945312 -9.472656 4.5625 -8.921875 C 4.175781 -8.367188 3.984375 -7.476562 3.984375 -6.25 L 3.984375 -5.90625 C 3.984375 -4.65625 4.171875 -3.753906 4.546875 -3.203125 C 4.929688 -2.660156 5.515625 -2.390625 6.296875 -2.390625 Z M 6.296875 -2.390625 "/></g></g></g><g fill="#000000" fill-opacity="1"><g transform="translate(208.863032, 241.793641)"><g><path d="M 4.40625 -10.828125 C 5.269531 -11.859375 6.351562 -12.375 7.65625 -12.375 C 10.289062 -12.375 11.628906 -10.84375 11.671875 -7.78125 L 11.671875 0 L 8.421875 0 L 8.421875 -7.6875 C 8.421875 -8.382812 8.269531 -8.898438 7.96875 -9.234375 C 7.675781 -9.566406 7.179688 -9.734375 6.484375 -9.734375 C 5.523438 -9.734375 4.832031 -9.367188 4.40625 -8.640625 L 4.40625 0 L 1.171875 0 L 1.171875 -17.25 L 4.40625 -17.25 Z M 4.40625 -10.828125 "/></g></g></g><g clip-path="url(#3cee6b6d13)"><path fill="#000000" d="M 145.011719 264.332031 L 145.230469 264.292969 L 145.847656 264.195312 C 147.960938 263.53125 149.519531 263.085938 150.515625 262.867188 C 154.433594 262.226562 157.113281 261.714844 158.558594 261.335938 L 166.277344 259.246094 C 167.148438 259.101562 170.386719 258.855469 176 258.503906 C 178.582031 258.332031 180.304688 258.265625 181.175781 258.304688 C 182.925781 258.363281 185.886719 258.984375 190.054688 260.164062 C 190.644531 260.375 191.4375 260.722656 192.433594 261.210938 L 199.492188 264.851562 C 200.195312 265.203125 200.867188 265.441406 201.5 265.570312 L 205.09375 266.140625 L 208.207031 266.84375 C 209.375 267.015625 210.335938 267.121094 211.09375 267.164062 C 211.492188 267.1875 211.898438 267.183594 212.3125 267.148438 L 214.144531 266.933594 C 215.582031 266.867188 216.679688 266.792969 217.4375 266.714844 C 218.289062 266.632812 218.898438 266.558594 219.261719 266.492188 C 219.695312 266.445312 221.15625 266.128906 223.644531 265.539062 C 224.339844 265.375 224.917969 265.195312 225.375 265.003906 C 235.613281 260.101562 241 257.550781 241.539062 257.359375 C 242.101562 257.027344 244.816406 255.980469 249.679688 254.222656 L 250.015625 253.859375 C 249.820312 253.804688 249.480469 253.773438 248.992188 253.761719 C 245.910156 253.808594 243.351562 254.144531 241.320312 254.769531 C 238.191406 255.546875 232.25 257.40625 223.5 260.34375 C 220.960938 260.699219 219.269531 260.902344 218.429688 260.953125 C 217.320312 261.007812 215.769531 260.996094 213.78125 260.921875 L 212.082031 260.988281 C 211.824219 261.007812 211 260.878906 209.609375 260.597656 L 206.648438 259.664062 L 202.867188 258.785156 C 198.792969 256.394531 195.160156 254.730469 191.972656 253.792969 C 189.492188 253.25 187.246094 252.863281 185.234375 252.632812 C 184.292969 252.515625 183.253906 252.421875 182.113281 252.351562 C 181.707031 252.332031 181.136719 252.363281 180.40625 252.4375 C 172.097656 253.613281 166.910156 254.523438 164.851562 255.164062 C 164.039062 255.402344 161.519531 256.5 157.292969 258.457031 L 149.921875 261.390625 C 148.984375 261.832031 147.582031 262.730469 145.714844 264.082031 C 145.550781 264.199219 145.316406 264.28125 145.011719 264.332031 " fill-opacity="1" fill-rule="nonzero"/></g></svg>